<?xml version="1.0" standalone="no"?>
<!DOCTYPE svg PUBLIC "-//W3C//DTD SVG 20010904//EN"
 "http://www.w3.org/TR/2001/REC-SVG-20010904/DTD/svg10.dtd">
<svg version="1.0" xmlns="http://www.w3.org/2000/svg"
 width="500.000000pt" height="500.000000pt" viewBox="0 0 500.000000 500.000000"
 preserveAspectRatio="xMidYMid meet">

<g transform="translate(0.000000,500.000000) scale(0.100000,-0.100000)"
fill="#000000" stroke="none">
<path d="M2305 4880 c-400 -71 -756 -337 -939 -701 -30 -59 -67 -146 -82 -194
l-29 -87 24 -19 c13 -10 27 -19 32 -19 19 0 46 39 63 91 9 30 41 104 71 164
208 419 630 684 1092 685 548 1 1005 -324 1191 -845 27 -76 30 -80 62 -83 63
-6 65 35 7 178 -156 389 -451 665 -841 789 -194 62 -447 78 -651 41z"/>
<path d="M2512 4698 c-8 -8 -12 -58 -12 -159 l0 -146 -82 -18 c-46 -9 -92 -19
-104 -22 -18 -4 -31 13 -89 110 -37 64 -76 117 -85 120 -28 7 -65 -16 -68 -42
-2 -12 7 -39 21 -59 85 -127 119 -192 99 -192 -6 0 -44 -32 -86 -71 -42 -39
-82 -69 -89 -66 -7 2 -61 41 -121 86 -60 44 -114 81 -122 81 -20 0 -44 -29
-44 -55 0 -25 16 -40 149 -143 44 -35 81 -67 81 -72 0 -4 -14 -38 -31 -74
l-31 -66 -143 0 c-158 0 -179 -7 -173 -59 5 -41 40 -52 135 -45 45 3 98 3 118
0 l35 -7 0 -112 c1 -84 5 -126 20 -167 11 -30 19 -61 20 -67 0 -10 -91 -13
-424 -13 -276 0 -435 -4 -453 -11 -15 -5 -41 -22 -56 -37 -59 -56 -60 -58 -58
-391 2 -304 2 -306 26 -342 38 -58 70 -67 256 -74 90 -3 178 -5 194 -5 26 0
33 -7 57 -55 l26 -55 -472 0 c-445 0 -474 -1 -489 -18 -22 -24 -21 -45 1 -65
17 -16 149 -17 1748 -15 l1729 3 9 27 c8 22 6 32 -9 48 -17 19 -30 20 -255 20
l-237 0 21 54 c26 66 26 66 244 66 134 0 158 3 193 20 62 32 81 71 76 155 -4
57 -13 88 -49 165 -25 52 -55 118 -68 145 -96 213 -129 272 -165 304 -67 58
-81 61 -335 61 -126 0 -230 3 -230 8 0 4 8 30 17 57 9 29 18 103 22 175 l6
125 128 2 c82 1 134 6 143 14 17 14 19 65 2 76 -7 4 -80 10 -161 13 l-148 5
-30 70 c-16 38 -29 72 -29 75 0 3 48 41 106 85 58 44 110 88 115 97 14 27 0
67 -26 74 -22 6 -108 -49 -209 -133 -22 -18 -44 -33 -49 -33 -12 0 -166 143
-167 155 0 6 29 58 65 118 55 92 63 111 55 132 -7 19 -17 25 -39 25 -35 0 -53
-21 -129 -151 l-51 -86 -105 26 -106 26 0 142 c0 115 -3 144 -16 157 -18 19
-55 21 -72 4z m199 -444 c153 -46 279 -153 348 -297 22 -45 45 -107 52 -138
17 -81 7 -250 -19 -314 l-20 -50 -523 0 -524 0 -23 70 c-29 85 -32 227 -7 319
59 222 252 395 480 430 51 7 179 -3 236 -20z m-1219 -1020 c37 -19 48 -43 48
-108 0 -129 -19 -138 -275 -134 l-194 3 -30 29 c-29 27 -31 35 -31 97 0 79 20
111 80 128 51 15 367 3 402 -15z m618 1 c41 -21 50 -43 50 -120 0 -60 -3 -69
-29 -96 l-29 -29 -192 0 c-263 0 -280 8 -280 138 0 58 3 72 23 89 12 11 29 23
37 26 8 3 100 6 203 6 149 1 194 -2 217 -14z m641 -23 c26 -28 29 -40 29 -95
-1 -64 -8 -81 -50 -110 -21 -15 -52 -17 -213 -17 -252 0 -267 8 -267 138 0 58
3 72 23 89 12 11 29 23 37 26 8 3 104 5 213 4 l199 -2 29 -33z m613 9 c24 -22
26 -32 26 -102 0 -74 -1 -78 -31 -103 l-31 -26 -198 0 -198 0 -31 26 c-29 24
-31 30 -31 99 0 40 3 81 6 90 15 38 60 45 266 42 193 -2 197 -2 222 -26z m318
23 c44 -6 46 -9 76 -68 82 -165 143 -310 140 -333 -6 -53 -25 -49 -187 41 -85
47 -157 86 -160 86 -3 1 -19 12 -36 25 -28 23 -30 30 -33 107 -3 72 -1 86 17
110 28 35 85 45 183 32z m-1992 -529 c74 -39 95 -131 41 -185 -36 -37 -72 -46
-122 -31 -96 29 -102 167 -9 213 43 22 53 22 90 3z m1680 -5 c48 -25 70 -55
70 -98 0 -48 -24 -87 -66 -107 -47 -22 -89 -14 -131 27 -26 25 -33 40 -33 71
0 47 31 94 74 113 40 17 40 17 86 -6z m-283 -128 c16 -1 25 -11 29 -29 4 -16
16 -40 26 -55 l19 -28 -670 0 -670 0 24 51 c13 29 28 55 33 58 9 5 1146 8
1209 3z"/>
<path d="M1339 3663 c-15 -2 -35 -13 -45 -24 -17 -19 -17 -23 -3 -47 l15 -27
204 0 204 0 15 26 c13 24 13 29 -2 53 l-17 26 -173 -1 c-94 -1 -184 -4 -198
-6z"/>
<path d="M436 3644 c-19 -18 -20 -38 -6 -65 10 -18 25 -19 358 -19 257 0 351
3 360 12 19 19 15 66 -7 78 -13 6 -143 10 -355 10 -291 0 -337 -2 -350 -16z"/>
<path d="M435 2850 c-15 -16 -17 -26 -9 -48 l9 -27 150 -3 c83 -1 160 0 172 3
30 7 38 40 19 70 -16 25 -18 25 -170 25 -141 0 -154 -2 -171 -20z"/>
<path d="M4114 2449 c-17 -19 -17 -23 -3 -47 l15 -27 267 -3 266 -2 17 25 c15
23 15 27 0 50 l-16 25 -264 0 c-253 0 -264 -1 -282 -21z"/>
<path d="M3702 2189 c-148 -38 -279 -119 -371 -231 -180 -218 -222 -557 -99
-803 92 -186 256 -319 463 -376 61 -16 105 -21 213 -21 150 1 239 18 355 68
81 36 220 127 241 158 14 22 16 64 16 320 0 254 -2 297 -16 310 -13 14 -56 16
-314 16 l-300 0 -16 -25 c-13 -19 -15 -47 -12 -148 4 -170 2 -167 164 -167 68
0 125 -3 127 -7 2 -5 1 -30 -2 -57 -6 -46 -9 -51 -51 -72 -144 -73 -337 -46
-444 62 -126 125 -139 350 -29 495 71 94 199 147 321 135 80 -8 140 -31 222
-84 41 -27 74 -42 89 -40 18 2 47 34 113 127 103 144 109 153 100 168 -14 22
-158 104 -234 133 -43 17 -110 37 -149 45 -100 21 -294 18 -387 -6z"/>
<path d="M1448 2181 c-67 -7 -48 14 -205 -228 -65 -101 -122 -183 -126 -183
-4 0 -60 80 -124 178 -64 97 -127 189 -141 205 l-26 27 -182 0 c-100 0 -189
-3 -198 -6 -25 -10 -19 -42 18 -98 18 -28 131 -199 250 -379 l216 -328 0 -278
c0 -248 2 -280 17 -292 21 -18 328 -15 350 2 10 9 13 70 13 293 l0 281 228
350 c125 193 238 367 250 387 l23 37 -20 20 c-19 19 -32 21 -153 20 -73 -1
-159 -5 -190 -8z"/>
<path d="M1851 2163 l-22 -18 3 -475 3 -475 26 -66 c53 -137 169 -263 294
-319 95 -43 159 -54 290 -53 100 1 132 5 193 26 154 53 268 146 335 275 66
126 67 131 67 642 0 444 -1 460 -19 470 -11 5 -85 10 -169 10 -133 0 -152 -2
-173 -19 l-24 -19 0 -429 0 -428 -23 -48 c-78 -158 -309 -154 -395 7 -21 40
-22 51 -25 476 -3 388 -5 436 -19 448 -12 8 -63 12 -169 12 -130 0 -155 -3
-173 -17z"/>
<path d="M3565 650 c-84 -26 -121 -123 -75 -197 25 -42 42 -50 152 -73 50 -11
100 -27 110 -37 23 -21 23 -55 -1 -84 -15 -19 -30 -24 -87 -27 -59 -3 -73 -1
-96 17 -14 12 -29 35 -33 52 -6 27 -10 30 -38 27 -28 -3 -32 -7 -35 -35 -8
-83 69 -138 193 -137 126 0 188 49 188 149 0 86 -25 106 -171 140 -81 19 -122
46 -122 78 0 30 11 44 43 56 67 26 149 3 161 -44 5 -21 12 -25 41 -25 30 0 35
3 35 25 0 73 -58 117 -164 121 -39 2 -85 -1 -101 -6z"/>
<path d="M4148 648 c-22 -6 -50 -24 -68 -44 -38 -44 -41 -104 -7 -155 24 -35
66 -54 187 -80 66 -14 90 -33 90 -69 0 -41 -32 -63 -98 -68 -79 -5 -110 9
-130 59 -14 36 -19 40 -46 37 -30 -3 -31 -5 -29 -48 3 -62 46 -102 129 -118
68 -14 160 -2 202 26 45 29 66 119 41 174 -16 36 -67 64 -139 78 -82 15 -114
27 -135 51 -40 43 15 99 97 99 40 0 94 -31 103 -59 4 -15 15 -21 36 -21 27 0
29 3 29 36 0 87 -129 137 -262 102z"/>
<path d="M607 643 c-4 -3 -7 -111 -7 -240 l0 -233 176 0 175 0 -3 32 -3 33
-130 5 -130 5 0 65 0 65 113 3 112 3 0 34 0 35 -115 0 -115 0 0 59 0 58 83 6
c45 4 103 7 128 7 39 0 48 3 52 21 12 47 5 49 -167 49 -90 0 -166 -3 -169 -7z"/>
<path d="M1123 642 c-9 -6 -2 -22 25 -58 71 -95 124 -174 120 -182 -2 -4 -30
-44 -63 -90 -33 -46 -68 -97 -78 -113 l-19 -29 50 0 50 0 58 86 c66 99 50 101
134 -21 45 -64 45 -65 93 -65 26 0 47 3 47 6 0 3 -33 51 -72 107 -40 55 -76
106 -80 113 -5 7 24 58 71 125 44 62 77 117 75 121 -6 10 -56 11 -79 2 -9 -4
-34 -34 -57 -68 -72 -108 -64 -106 -120 -29 -27 38 -55 76 -63 86 -15 18 -70
23 -92 9z"/>
<path d="M1740 410 l0 -240 40 0 40 0 0 85 0 85 88 0 c154 0 217 52 209 174
-3 54 -7 63 -41 92 -45 39 -69 44 -217 44 l-119 0 0 -240z m281 141 c28 -35
24 -77 -10 -112 -28 -27 -34 -29 -110 -29 l-81 0 0 86 0 86 91 -4 c81 -3 93
-6 110 -27z"/>
<path d="M2321 636 c-8 -9 -11 -81 -9 -237 l3 -224 43 -3 42 -3 0 90 c0 62 4
91 13 94 13 4 117 -1 153 -8 29 -6 44 -46 44 -115 l0 -60 41 0 42 0 -5 79 c-3
53 -11 88 -22 106 -18 27 -18 29 5 69 28 50 31 122 5 161 -32 49 -86 65 -222
65 -91 0 -124 -3 -133 -14z m272 -84 c25 -22 23 -84 -4 -108 -16 -15 -40 -20
-105 -23 l-84 -3 0 80 0 80 88 -5 c58 -4 93 -11 105 -21z"/>
<path d="M2922 638 c-9 -9 -12 -70 -12 -224 0 -117 3 -219 6 -228 5 -14 31
-16 180 -16 l174 0 0 29 c0 17 -6 31 -16 35 -9 3 -69 6 -135 6 l-119 0 0 70 0
70 116 0 115 0 -3 33 -3 32 -113 3 -113 3 3 62 3 62 125 5 125 5 0 30 0 30
-160 3 c-116 2 -164 -1 -173 -10z"/>
</g>
</svg>
